<?xml version="1.0" encoding="UTF-8" standalone="no"?>
<!-- Created with Inkscape (http://www.inkscape.org/) -->

<svg
   width="150mm"
   height="42mm"
   viewBox="0 0 150 42"
   version="1.1"
   id="svg1"
   xml:space="preserve"
   xmlns="http://www.w3.org/2000/svg"
   xmlns:svg="http://www.w3.org/2000/svg"><defs
     id="defs1"><rect
       x="108.86121"
       y="405.55261"
       width="496.12158"
       height="31.230675"
       id="rect2" /></defs><g
     id="layer1"><text
       xml:space="preserve"
       style="font-style:normal;font-variant:normal;font-weight:normal;font-stretch:normal;font-size:21.4347px;font-family:'Segoe Print';-inkscape-font-specification:'Segoe Print, Normal';font-variant-ligatures:normal;font-variant-caps:normal;font-variant-numeric:normal;font-variant-east-asian:normal;text-align:start;writing-mode:lr-tb;direction:ltr;text-anchor:start;fill:#ff7f2a;fill-opacity:1;stroke:none;stroke-width:1.78618;stroke-dasharray:none;stroke-opacity:1"
       x="19.871578"
       y="39.971626"
       id="text1"
       transform="matrix(1.3691191,0.02272734,0,0.73039664,0,0)"><tspan
         id="tspan1"
         x="19.871578"
         y="39.971626"
         style="font-style:normal;font-variant:normal;font-weight:normal;font-stretch:normal;font-size:21.4347px;font-family:'Segoe Print';-inkscape-font-specification:'Segoe Print, Normal';font-variant-ligatures:normal;font-variant-caps:normal;font-variant-numeric:normal;font-variant-east-asian:normal;fill:#ff7f2a;fill-opacity:1;stroke:none;stroke-width:1.78618;stroke-dasharray:none;stroke-opacity:1">BERLIN</tspan></text><path
       d="m 13.354382,31.156965 c -0.822151,-0.33549 -1.39021,-0.786741 -1.287044,-1.022413 0.264283,-0.60375 1.909279,-1.515573 2.975701,-1.649428 0.649714,-0.08156 0.511228,0.05976 -0.48458,0.494535 -0.766853,0.334783 -1.505185,0.760249 -1.640742,0.945494 -0.135956,0.185765 0.775311,0.611815 2.032398,0.950202 1.856377,0.49969 2.834344,0.52087 5.275127,0.11435 4.154482,-0.691937 5.422679,-1.005049 5.490437,-1.355521 0.03206,-0.165828 -0.807957,-1.625726 -1.866699,-3.244197 -1.058748,-1.618466 -2.121598,-3.316744 -2.361895,-3.773949 -0.407176,-0.774721 -0.39265,-0.794034 0.213534,-0.283853 1.196934,1.007391 5.449895,7.591782 5.159741,7.98827 -0.157538,0.215271 -2.097102,0.76705 -4.310142,1.22615 -4.19603,0.8705 -6.329064,0.7801 -9.195835,-0.38966 z m 3.303074,-4.167254 c 0.02874,-0.237492 -0.124971,-0.696133 -0.341603,-1.019197 -0.216629,-0.323075 -0.821431,-1.536932 -1.344001,-2.697457 l -0.950127,-2.110063 1.139778,-0.796121 c 7.007797,-4.89488 19.939608,-8.525729 31.69965,-10.5352018 6.782172,-1.158891 5.331462,-0.887928 6.912782,-1.386334 8.664986,-2.731056 10.592265,-3.200204 16.191825,-4.429084 10.495432,-2.303331 16.588522,-2.465689 28.221532,-0.751982 6.705678,0.987816 9.627098,1.600512 14.153878,2.968344 7.80625,2.35877 21.35067,6.6792588 26.73966,8.5296028 5.00592,1.718804 3.30471,-0.261682 -4.24559,-2.58596 C 114.98803,6.0664802 109.19776,6.1566042 100.45552,4.6820092 84.584552,2.0049862 76.615012,2.7293202 56.682142,8.6605102 53.17359,9.7045112 49.219299,10.538925 46.017573,10.9109 c -8.433877,0.979828 -15.641995,2.807028 -22.366511,5.669721 -3.841919,1.635543 -8.765179,4.321599 -8.824871,4.814716 -0.02353,0.194346 0.489669,1.524611 1.140426,2.956147 0.650762,1.431527 1.06066,2.707912 0.910888,2.836408 -0.149775,0.128486 -0.248801,0.03936 -0.220049,-0.198181 z m 1.191331,-6.881397 c 0.07255,-0.599336 11.273001,-5.311066 11.574937,-4.869269 0.06717,0.09836 -1.836467,1.037109 -4.230316,2.086254 -2.39385,1.049144 -4.30265,1.980407 -4.241775,2.069473 0.06087,0.08901 1.8061,0.127282 3.878289,0.08479 5.612119,-0.114748 6.436185,0.260665 1.267145,0.577261 -5.494526,0.33654 -8.2849,0.353915 -8.248277,0.05137 z m 41.441755,-7.18157 C 56.631726,11.640791 54.594715,10.484468 54.763855,10.357152 55.32246,9.9366682 69.103536,6.1430642 72.747914,5.4065632 c 11.130258,-2.249307 23.424098,-1.466435 37.136206,2.364847 5.92591,1.655749 17.40301,7.5788658 16.90222,8.7229178 -0.21304,0.486686 -4.68576,1.764048 -5.19964,1.484968 -0.17714,-0.09614 0.77302,-0.436027 2.11145,-0.755163 1.33841,-0.319147 2.45177,-0.731319 2.47412,-0.915944 0.0449,-0.370188 -7.95939,-4.697239 -11.44463,-6.18693 -5.23629,-2.2381448 -20.812218,-4.9711568 -28.273818,-4.9610218 -5.33109,0.0072 -10.39791,0.601292 -15.775375,1.849564 -6.069538,1.408928 -13.453959,3.5873828 -13.134302,3.8747098 0.149895,0.134713 1.822683,0.961492 3.717311,1.837225 l 3.444775,1.592251 8.854059,0.418768 c 9.320472,0.440838 21.065032,0.825343 25.288652,0.827919 2.535888,0.0016 4.574988,0.209794 3.893718,0.397643 -0.46453,0.128086 -13.186058,0.130511 -17.738748,0.0034 -1.86608,-0.05215 -6.68428,-0.213434 -10.70712,-0.358517 -4.022839,-0.145073 -7.957257,-0.280537 -8.743144,-0.301054 -0.971342,-0.02542 -2.976849,-0.785953 -6.263106,-2.375379 z m 6.256113,-0.318512 c -0.532384,-0.569672 -0.451442,-0.691094 1.097206,-1.64584 1.458233,-0.899014 1.944139,-0.9880118 3.800586,-0.696167 1.170722,0.18407 3.28749,0.752079 4.703924,1.262306 l 2.575331,0.927671 -4.414606,-0.856178 c -4.038275,-0.783181 -4.549917,-0.802295 -6.001826,-0.224075 -1.307672,0.520769 -1.525116,0.742991 -1.23463,1.261791 0.440218,0.786224 0.225067,0.774152 -0.525985,-0.0295 z m 35.982115,-1.080697 c -0.32141,-1.6039298 -0.5553,-3.1273468 -0.51974,-3.3853678 0.067,-0.486825 1.0429,2.8259778 1.14906,3.9009918 0.0332,0.335817 0.11596,1.024848 0.18402,1.531215 0.27488,2.045284 -0.26617,0.683677 -0.81334,-2.046839 z m 43.49267,5.259673 c 0.44946,-0.03065 4.92135,0.160022 5.24611,0.307533 0.32476,0.147625 -3.88153,0.07774 -4.65565,-0.03925 -0.7742,-0.117097 -1.03989,-0.23783 -0.59044,-0.268412 z m -2.59839,-0.771735 c 0.35095,-0.04984 0.90559,0.0306 1.23253,0.179183 0.32696,0.1484 1.37897,0.05538 0.70116,-0.04316 -0.6779,-0.09855 -2.28465,-0.08613 -1.93369,-0.136029 z"
       style="fill:#ff7f2a;fill-opacity:1;stroke:#000000;stroke-width:0.281895;stroke-opacity:1"
       id="path1" /><path
       d="m 146.54769,37.245685 c -6.71714,0.78599 -13.85695,-0.45479 -43.521,-0.46056 -10.129948,-0.002 -100.7243341,-1.62995 -101.3001961,-0.92198"
       style="fill:#ff7f2a;fill-opacity:1;stroke:#000000;stroke-width:0.307447;stroke-opacity:1"
       id="path1-6" /><text
       xml:space="preserve"
       transform="matrix(0.46589308,0,0,0.25797222,25.165135,-69.684425)"
       id="text2"
       style="font-style:normal;font-variant:normal;font-weight:normal;font-stretch:normal;font-size:12px;font-family:'Segoe Script';-inkscape-font-specification:'Segoe Script, Normal';font-variant-ligatures:normal;font-variant-caps:normal;font-variant-numeric:normal;font-variant-east-asian:normal;text-align:start;writing-mode:lr-tb;direction:ltr;white-space:pre;shape-inside:url(#rect2);fill:#ff7f2a;fill-opacity:1"><tspan
         x="108.86133"
         y="416.11808"
         id="tspan3">AUTO SALES INC.</tspan></text><path
       d="M 83.930942,3.0342222"
       style="fill:#ff7f2a;fill-opacity:1;stroke:#000000;stroke-width:0.245516;stroke-opacity:1"
       id="path1-8" /></g></svg>
